<mxfile host="app.diagrams.net" modified="2021-08-17T09:40:58.948Z" agent="5.0 (Macintosh; Intel Mac OS X 10_15_7) AppleWebKit/537.36 (KHTML, like Gecko) Chrome/86.0.4240.193 Safari/537.36" etag="VpgsZ_TZXz8oO5SjQAGd" version="14.9.6" type="github">
  <diagram id="uGN4nTNDDrmoTRhsjQsZ" name="Page-1">
    <mxGraphModel dx="946" dy="536" grid="1" gridSize="10" guides="1" tooltips="1" connect="1" arrows="1" fold="1" page="1" pageScale="1" pageWidth="827" pageHeight="1169" math="0" shadow="0">
      <root>
        <mxCell id="0" />
        <mxCell id="1" parent="0" />
        <mxCell id="-J2OPDpSHMZJceOaY3Ix-1" value="" style="shape=table;html=1;whiteSpace=wrap;startSize=0;container=1;collapsible=0;childLayout=tableLayout;" vertex="1" parent="1">
          <mxGeometry x="220" y="130" width="160" height="160" as="geometry" />
        </mxCell>
        <mxCell id="-J2OPDpSHMZJceOaY3Ix-2" value="" style="shape=partialRectangle;html=1;whiteSpace=wrap;collapsible=0;dropTarget=0;pointerEvents=0;fillColor=none;top=0;left=0;bottom=0;right=0;points=[[0,0.5],[1,0.5]];portConstraint=eastwest;" vertex="1" parent="-J2OPDpSHMZJceOaY3Ix-1">
          <mxGeometry width="160" height="40" as="geometry" />
        </mxCell>
        <mxCell id="-J2OPDpSHMZJceOaY3Ix-3" value="0" style="shape=partialRectangle;html=1;whiteSpace=wrap;connectable=0;fillColor=#ffe6cc;top=0;left=0;bottom=0;right=0;overflow=hidden;pointerEvents=1;strokeColor=#d79b00;" vertex="1" parent="-J2OPDpSHMZJceOaY3Ix-2">
          <mxGeometry width="40" height="40" as="geometry" />
        </mxCell>
        <mxCell id="-J2OPDpSHMZJceOaY3Ix-4" value="-1" style="shape=partialRectangle;html=1;whiteSpace=wrap;connectable=0;fillColor=#fff2cc;top=0;left=0;bottom=0;right=0;overflow=hidden;pointerEvents=1;strokeColor=#d6b656;" vertex="1" parent="-J2OPDpSHMZJceOaY3Ix-2">
          <mxGeometry x="40" width="40" height="40" as="geometry" />
        </mxCell>
        <mxCell id="-J2OPDpSHMZJceOaY3Ix-5" value="-2" style="shape=partialRectangle;html=1;whiteSpace=wrap;connectable=0;fillColor=#f8cecc;top=0;left=0;bottom=0;right=0;overflow=hidden;pointerEvents=1;strokeColor=#b85450;" vertex="1" parent="-J2OPDpSHMZJceOaY3Ix-2">
          <mxGeometry x="80" width="40" height="40" as="geometry" />
        </mxCell>
        <mxCell id="-J2OPDpSHMZJceOaY3Ix-14" value="-3" style="shape=partialRectangle;html=1;whiteSpace=wrap;connectable=0;fillColor=#e1d5e7;top=0;left=0;bottom=0;right=0;overflow=hidden;pointerEvents=1;strokeColor=#9673a6;" vertex="1" parent="-J2OPDpSHMZJceOaY3Ix-2">
          <mxGeometry x="120" width="40" height="40" as="geometry" />
        </mxCell>
        <mxCell id="-J2OPDpSHMZJceOaY3Ix-6" value="" style="shape=partialRectangle;html=1;whiteSpace=wrap;collapsible=0;dropTarget=0;pointerEvents=0;fillColor=none;top=0;left=0;bottom=0;right=0;points=[[0,0.5],[1,0.5]];portConstraint=eastwest;" vertex="1" parent="-J2OPDpSHMZJceOaY3Ix-1">
          <mxGeometry y="40" width="160" height="40" as="geometry" />
        </mxCell>
        <mxCell id="-J2OPDpSHMZJceOaY3Ix-7" value="1" style="shape=partialRectangle;html=1;whiteSpace=wrap;connectable=0;fillColor=#d5e8d4;top=0;left=0;bottom=0;right=0;overflow=hidden;pointerEvents=1;strokeColor=#82b366;" vertex="1" parent="-J2OPDpSHMZJceOaY3Ix-6">
          <mxGeometry width="40" height="40" as="geometry" />
        </mxCell>
        <mxCell id="-J2OPDpSHMZJceOaY3Ix-8" value="0" style="shape=partialRectangle;html=1;whiteSpace=wrap;connectable=0;fillColor=#ffe6cc;top=0;left=0;bottom=0;right=0;overflow=hidden;pointerEvents=1;strokeColor=#d79b00;" vertex="1" parent="-J2OPDpSHMZJceOaY3Ix-6">
          <mxGeometry x="40" width="40" height="40" as="geometry" />
        </mxCell>
        <mxCell id="-J2OPDpSHMZJceOaY3Ix-9" value="-1" style="shape=partialRectangle;html=1;whiteSpace=wrap;connectable=0;fillColor=#fff2cc;top=0;left=0;bottom=0;right=0;overflow=hidden;pointerEvents=1;strokeColor=#d6b656;" vertex="1" parent="-J2OPDpSHMZJceOaY3Ix-6">
          <mxGeometry x="80" width="40" height="40" as="geometry" />
        </mxCell>
        <mxCell id="-J2OPDpSHMZJceOaY3Ix-15" value="-2" style="shape=partialRectangle;html=1;whiteSpace=wrap;connectable=0;fillColor=#f8cecc;top=0;left=0;bottom=0;right=0;overflow=hidden;pointerEvents=1;strokeColor=#b85450;" vertex="1" parent="-J2OPDpSHMZJceOaY3Ix-6">
          <mxGeometry x="120" width="40" height="40" as="geometry" />
        </mxCell>
        <mxCell id="-J2OPDpSHMZJceOaY3Ix-10" value="" style="shape=partialRectangle;html=1;whiteSpace=wrap;collapsible=0;dropTarget=0;pointerEvents=0;fillColor=none;top=0;left=0;bottom=0;right=0;points=[[0,0.5],[1,0.5]];portConstraint=eastwest;" vertex="1" parent="-J2OPDpSHMZJceOaY3Ix-1">
          <mxGeometry y="80" width="160" height="40" as="geometry" />
        </mxCell>
        <mxCell id="-J2OPDpSHMZJceOaY3Ix-11" value="2" style="shape=partialRectangle;html=1;whiteSpace=wrap;connectable=0;fillColor=#dae8fc;top=0;left=0;bottom=0;right=0;overflow=hidden;pointerEvents=1;strokeColor=#6c8ebf;" vertex="1" parent="-J2OPDpSHMZJceOaY3Ix-10">
          <mxGeometry width="40" height="40" as="geometry" />
        </mxCell>
        <mxCell id="-J2OPDpSHMZJceOaY3Ix-12" value="1" style="shape=partialRectangle;html=1;whiteSpace=wrap;connectable=0;fillColor=#d5e8d4;top=0;left=0;bottom=0;right=0;overflow=hidden;pointerEvents=1;strokeColor=#82b366;" vertex="1" parent="-J2OPDpSHMZJceOaY3Ix-10">
          <mxGeometry x="40" width="40" height="40" as="geometry" />
        </mxCell>
        <mxCell id="-J2OPDpSHMZJceOaY3Ix-13" value="0" style="shape=partialRectangle;html=1;whiteSpace=wrap;connectable=0;fillColor=#ffe6cc;top=0;left=0;bottom=0;right=0;overflow=hidden;pointerEvents=1;strokeColor=#d79b00;" vertex="1" parent="-J2OPDpSHMZJceOaY3Ix-10">
          <mxGeometry x="80" width="40" height="40" as="geometry" />
        </mxCell>
        <mxCell id="-J2OPDpSHMZJceOaY3Ix-16" value="-1" style="shape=partialRectangle;html=1;whiteSpace=wrap;connectable=0;fillColor=#fff2cc;top=0;left=0;bottom=0;right=0;overflow=hidden;pointerEvents=1;strokeColor=#d6b656;" vertex="1" parent="-J2OPDpSHMZJceOaY3Ix-10">
          <mxGeometry x="120" width="40" height="40" as="geometry" />
        </mxCell>
        <mxCell id="-J2OPDpSHMZJceOaY3Ix-17" style="shape=partialRectangle;html=1;whiteSpace=wrap;collapsible=0;dropTarget=0;pointerEvents=0;fillColor=none;top=0;left=0;bottom=0;right=0;points=[[0,0.5],[1,0.5]];portConstraint=eastwest;" vertex="1" parent="-J2OPDpSHMZJceOaY3Ix-1">
          <mxGeometry y="120" width="160" height="40" as="geometry" />
        </mxCell>
        <mxCell id="-J2OPDpSHMZJceOaY3Ix-18" value="3" style="shape=partialRectangle;html=1;whiteSpace=wrap;connectable=0;fillColor=#f5f5f5;top=0;left=0;bottom=0;right=0;overflow=hidden;pointerEvents=1;strokeColor=#666666;fontColor=#333333;" vertex="1" parent="-J2OPDpSHMZJceOaY3Ix-17">
          <mxGeometry width="40" height="40" as="geometry" />
        </mxCell>
        <mxCell id="-J2OPDpSHMZJceOaY3Ix-19" value="2" style="shape=partialRectangle;html=1;whiteSpace=wrap;connectable=0;fillColor=#dae8fc;top=0;left=0;bottom=0;right=0;overflow=hidden;pointerEvents=1;strokeColor=#6c8ebf;" vertex="1" parent="-J2OPDpSHMZJceOaY3Ix-17">
          <mxGeometry x="40" width="40" height="40" as="geometry" />
        </mxCell>
        <mxCell id="-J2OPDpSHMZJceOaY3Ix-20" value="1" style="shape=partialRectangle;html=1;whiteSpace=wrap;connectable=0;fillColor=#d5e8d4;top=0;left=0;bottom=0;right=0;overflow=hidden;pointerEvents=1;strokeColor=#82b366;" vertex="1" parent="-J2OPDpSHMZJceOaY3Ix-17">
          <mxGeometry x="80" width="40" height="40" as="geometry" />
        </mxCell>
        <mxCell id="-J2OPDpSHMZJceOaY3Ix-21" value="0" style="shape=partialRectangle;html=1;whiteSpace=wrap;connectable=0;fillColor=#ffe6cc;top=0;left=0;bottom=0;right=0;overflow=hidden;pointerEvents=1;strokeColor=#d79b00;" vertex="1" parent="-J2OPDpSHMZJceOaY3Ix-17">
          <mxGeometry x="120" width="40" height="40" as="geometry" />
        </mxCell>
        <mxCell id="-J2OPDpSHMZJceOaY3Ix-22" value="" style="shape=table;html=1;whiteSpace=wrap;startSize=0;container=1;collapsible=0;childLayout=tableLayout;" vertex="1" parent="1">
          <mxGeometry x="430" y="130" width="160" height="160" as="geometry" />
        </mxCell>
        <mxCell id="-J2OPDpSHMZJceOaY3Ix-23" value="" style="shape=partialRectangle;html=1;whiteSpace=wrap;collapsible=0;dropTarget=0;pointerEvents=0;fillColor=none;top=0;left=0;bottom=0;right=0;points=[[0,0.5],[1,0.5]];portConstraint=eastwest;" vertex="1" parent="-J2OPDpSHMZJceOaY3Ix-22">
          <mxGeometry width="160" height="40" as="geometry" />
        </mxCell>
        <mxCell id="-J2OPDpSHMZJceOaY3Ix-24" value="0" style="shape=partialRectangle;html=1;whiteSpace=wrap;connectable=0;top=0;left=0;bottom=0;right=0;overflow=hidden;pointerEvents=1;fillColor=#f5f5f5;strokeColor=#666666;fontColor=#333333;" vertex="1" parent="-J2OPDpSHMZJceOaY3Ix-23">
          <mxGeometry width="40" height="40" as="geometry" />
        </mxCell>
        <mxCell id="-J2OPDpSHMZJceOaY3Ix-25" value="1" style="shape=partialRectangle;html=1;whiteSpace=wrap;connectable=0;fillColor=#dae8fc;top=0;left=0;bottom=0;right=0;overflow=hidden;pointerEvents=1;strokeColor=#6c8ebf;" vertex="1" parent="-J2OPDpSHMZJceOaY3Ix-23">
          <mxGeometry x="40" width="40" height="40" as="geometry" />
        </mxCell>
        <mxCell id="-J2OPDpSHMZJceOaY3Ix-26" value="2" style="shape=partialRectangle;html=1;whiteSpace=wrap;connectable=0;fillColor=#d5e8d4;top=0;left=0;bottom=0;right=0;overflow=hidden;pointerEvents=1;strokeColor=#82b366;" vertex="1" parent="-J2OPDpSHMZJceOaY3Ix-23">
          <mxGeometry x="80" width="40" height="40" as="geometry" />
        </mxCell>
        <mxCell id="-J2OPDpSHMZJceOaY3Ix-27" value="3" style="shape=partialRectangle;html=1;whiteSpace=wrap;connectable=0;fillColor=#ffe6cc;top=0;left=0;bottom=0;right=0;overflow=hidden;pointerEvents=1;strokeColor=#d79b00;" vertex="1" parent="-J2OPDpSHMZJceOaY3Ix-23">
          <mxGeometry x="120" width="40" height="40" as="geometry" />
        </mxCell>
        <mxCell id="-J2OPDpSHMZJceOaY3Ix-28" value="" style="shape=partialRectangle;html=1;whiteSpace=wrap;collapsible=0;dropTarget=0;pointerEvents=0;fillColor=none;top=0;left=0;bottom=0;right=0;points=[[0,0.5],[1,0.5]];portConstraint=eastwest;" vertex="1" parent="-J2OPDpSHMZJceOaY3Ix-22">
          <mxGeometry y="40" width="160" height="40" as="geometry" />
        </mxCell>
        <mxCell id="-J2OPDpSHMZJceOaY3Ix-29" value="1" style="shape=partialRectangle;html=1;whiteSpace=wrap;connectable=0;fillColor=#dae8fc;top=0;left=0;bottom=0;right=0;overflow=hidden;pointerEvents=1;strokeColor=#6c8ebf;" vertex="1" parent="-J2OPDpSHMZJceOaY3Ix-28">
          <mxGeometry width="40" height="40" as="geometry" />
        </mxCell>
        <mxCell id="-J2OPDpSHMZJceOaY3Ix-30" value="2" style="shape=partialRectangle;html=1;whiteSpace=wrap;connectable=0;fillColor=#d5e8d4;top=0;left=0;bottom=0;right=0;overflow=hidden;pointerEvents=1;strokeColor=#82b366;" vertex="1" parent="-J2OPDpSHMZJceOaY3Ix-28">
          <mxGeometry x="40" width="40" height="40" as="geometry" />
        </mxCell>
        <mxCell id="-J2OPDpSHMZJceOaY3Ix-31" value="3" style="shape=partialRectangle;html=1;whiteSpace=wrap;connectable=0;fillColor=#ffe6cc;top=0;left=0;bottom=0;right=0;overflow=hidden;pointerEvents=1;strokeColor=#d79b00;" vertex="1" parent="-J2OPDpSHMZJceOaY3Ix-28">
          <mxGeometry x="80" width="40" height="40" as="geometry" />
        </mxCell>
        <mxCell id="-J2OPDpSHMZJceOaY3Ix-32" value="4" style="shape=partialRectangle;html=1;whiteSpace=wrap;connectable=0;fillColor=#fff2cc;top=0;left=0;bottom=0;right=0;overflow=hidden;pointerEvents=1;strokeColor=#d6b656;" vertex="1" parent="-J2OPDpSHMZJceOaY3Ix-28">
          <mxGeometry x="120" width="40" height="40" as="geometry" />
        </mxCell>
        <mxCell id="-J2OPDpSHMZJceOaY3Ix-33" value="" style="shape=partialRectangle;html=1;whiteSpace=wrap;collapsible=0;dropTarget=0;pointerEvents=0;fillColor=none;top=0;left=0;bottom=0;right=0;points=[[0,0.5],[1,0.5]];portConstraint=eastwest;" vertex="1" parent="-J2OPDpSHMZJceOaY3Ix-22">
          <mxGeometry y="80" width="160" height="40" as="geometry" />
        </mxCell>
        <mxCell id="-J2OPDpSHMZJceOaY3Ix-34" value="2" style="shape=partialRectangle;html=1;whiteSpace=wrap;connectable=0;fillColor=#d5e8d4;top=0;left=0;bottom=0;right=0;overflow=hidden;pointerEvents=1;strokeColor=#82b366;" vertex="1" parent="-J2OPDpSHMZJceOaY3Ix-33">
          <mxGeometry width="40" height="40" as="geometry" />
        </mxCell>
        <mxCell id="-J2OPDpSHMZJceOaY3Ix-35" value="3" style="shape=partialRectangle;html=1;whiteSpace=wrap;connectable=0;fillColor=#ffe6cc;top=0;left=0;bottom=0;right=0;overflow=hidden;pointerEvents=1;strokeColor=#d79b00;" vertex="1" parent="-J2OPDpSHMZJceOaY3Ix-33">
          <mxGeometry x="40" width="40" height="40" as="geometry" />
        </mxCell>
        <mxCell id="-J2OPDpSHMZJceOaY3Ix-36" value="4" style="shape=partialRectangle;html=1;whiteSpace=wrap;connectable=0;fillColor=#fff2cc;top=0;left=0;bottom=0;right=0;overflow=hidden;pointerEvents=1;strokeColor=#d6b656;" vertex="1" parent="-J2OPDpSHMZJceOaY3Ix-33">
          <mxGeometry x="80" width="40" height="40" as="geometry" />
        </mxCell>
        <mxCell id="-J2OPDpSHMZJceOaY3Ix-37" value="5" style="shape=partialRectangle;html=1;whiteSpace=wrap;connectable=0;fillColor=#f8cecc;top=0;left=0;bottom=0;right=0;overflow=hidden;pointerEvents=1;strokeColor=#b85450;" vertex="1" parent="-J2OPDpSHMZJceOaY3Ix-33">
          <mxGeometry x="120" width="40" height="40" as="geometry" />
        </mxCell>
        <mxCell id="-J2OPDpSHMZJceOaY3Ix-38" style="shape=partialRectangle;html=1;whiteSpace=wrap;collapsible=0;dropTarget=0;pointerEvents=0;fillColor=none;top=0;left=0;bottom=0;right=0;points=[[0,0.5],[1,0.5]];portConstraint=eastwest;" vertex="1" parent="-J2OPDpSHMZJceOaY3Ix-22">
          <mxGeometry y="120" width="160" height="40" as="geometry" />
        </mxCell>
        <mxCell id="-J2OPDpSHMZJceOaY3Ix-39" value="3" style="shape=partialRectangle;html=1;whiteSpace=wrap;connectable=0;fillColor=#ffe6cc;top=0;left=0;bottom=0;right=0;overflow=hidden;pointerEvents=1;strokeColor=#d79b00;" vertex="1" parent="-J2OPDpSHMZJceOaY3Ix-38">
          <mxGeometry width="40" height="40" as="geometry" />
        </mxCell>
        <mxCell id="-J2OPDpSHMZJceOaY3Ix-40" value="4" style="shape=partialRectangle;html=1;whiteSpace=wrap;connectable=0;fillColor=#fff2cc;top=0;left=0;bottom=0;right=0;overflow=hidden;pointerEvents=1;strokeColor=#d6b656;" vertex="1" parent="-J2OPDpSHMZJceOaY3Ix-38">
          <mxGeometry x="40" width="40" height="40" as="geometry" />
        </mxCell>
        <mxCell id="-J2OPDpSHMZJceOaY3Ix-41" value="5" style="shape=partialRectangle;html=1;whiteSpace=wrap;connectable=0;fillColor=#f8cecc;top=0;left=0;bottom=0;right=0;overflow=hidden;pointerEvents=1;strokeColor=#b85450;" vertex="1" parent="-J2OPDpSHMZJceOaY3Ix-38">
          <mxGeometry x="80" width="40" height="40" as="geometry" />
        </mxCell>
        <mxCell id="-J2OPDpSHMZJceOaY3Ix-42" value="6" style="shape=partialRectangle;html=1;whiteSpace=wrap;connectable=0;fillColor=#e1d5e7;top=0;left=0;bottom=0;right=0;overflow=hidden;pointerEvents=1;strokeColor=#9673a6;" vertex="1" parent="-J2OPDpSHMZJceOaY3Ix-38">
          <mxGeometry x="120" width="40" height="40" as="geometry" />
        </mxCell>
        <mxCell id="-J2OPDpSHMZJceOaY3Ix-45" value="x+y标识副对角线" style="text;html=1;align=center;verticalAlign=middle;resizable=0;points=[];autosize=1;strokeColor=none;" vertex="1" parent="1">
          <mxGeometry x="455" y="320" width="110" height="20" as="geometry" />
        </mxCell>
        <mxCell id="-J2OPDpSHMZJceOaY3Ix-46" value="x-y标识副对角线(y-x也可以）" style="text;html=1;align=center;verticalAlign=middle;resizable=0;points=[];autosize=1;strokeColor=none;" vertex="1" parent="1">
          <mxGeometry x="220" y="320" width="170" height="20" as="geometry" />
        </mxCell>
      </root>
    </mxGraphModel>
  </diagram>
</mxfile>
